<svg xmlns="http://www.w3.org/2000/svg" width="27.425" height="21.825" viewBox="0 0 27.425 21.825"><defs><style>.a{fill:#7a4ce2;}</style></defs><g transform="translate(0 0)"><path class="a" d="M75.5,120.939,65.715,129a.231.231,0,0,1-.009.051.234.234,0,0,0-.009.051v8.165a1.1,1.1,0,0,0,1.089,1.089h6.532v-6.532h4.355v6.532h6.532a1.106,1.106,0,0,0,1.089-1.089V129.1a.24.24,0,0,0-.017-.1Z" transform="translate(-61.784 -116.533)"/><path class="a" d="M27.235,57.626l-3.725-3.1V47.59a.524.524,0,0,0-.544-.544H19.7a.524.524,0,0,0-.544.544v3.317L15,47.436a2.11,2.11,0,0,0-2.585,0L.188,57.626A.494.494,0,0,0,0,57.991a.551.551,0,0,0,.119.4L1.175,59.65a.58.58,0,0,0,.357.187.632.632,0,0,0,.408-.119L13.712,49.9l11.771,9.815a.524.524,0,0,0,.357.119h.051a.581.581,0,0,0,.357-.187L27.3,58.391a.551.551,0,0,0,.119-.4A.5.5,0,0,0,27.235,57.626Z" transform="translate(0.001 -46.994)"/></g></svg>