<svg xmlns="http://www.w3.org/2000/svg" width="34.011" height="34.011" viewBox="0 0 34.011 34.011"><defs><style>.a{fill:none;}.b{fill:#7a4ce2;}</style></defs><path class="a" d="M0,0H34.011V34.011H0Z"/><path class="b" d="M16.171,2A14.171,14.171,0,1,0,30.343,16.171,14.177,14.177,0,0,0,16.171,2Zm0,25.508A11.337,11.337,0,1,1,27.508,16.171,11.352,11.352,0,0,1,16.171,27.508ZM14.754,21.84h2.834v2.834H14.754ZM17.036,7.725a5.671,5.671,0,0,0-6.278,3.954,1.285,1.285,0,0,0,1.233,1.658h.283a1.364,1.364,0,0,0,1.247-.949,2.837,2.837,0,0,1,3.259-1.814,2.867,2.867,0,0,1,2.225,2.976c-.142,1.9-2.3,2.31-3.472,4.081,0,.014-.014.014-.014.028s-.028.043-.043.071a4.721,4.721,0,0,0-.354.709c-.014.043-.043.071-.057.113a.9.9,0,0,0-.028.1,5.268,5.268,0,0,0-.283,1.771h2.834a3.011,3.011,0,0,1,.4-1.516c.028-.043.043-.085.071-.128a3.908,3.908,0,0,1,.4-.553c.014-.014.028-.043.043-.057a4.98,4.98,0,0,1,.468-.482c1.36-1.29,3.2-2.338,2.82-5.045a5.775,5.775,0,0,0-4.747-4.917Z" transform="translate(0.834 0.834)"/></svg>