<svg xmlns="http://www.w3.org/2000/svg" width="24" height="24" viewBox="0 0 24 24"><defs><style>.a{fill:none;}.b{fill:#00a0f3;}</style></defs><rect class="a" width="24" height="24"/><path class="b" d="M17,2H7A2.006,2.006,0,0,0,5,4V6A2.006,2.006,0,0,0,7,8H17a2.006,2.006,0,0,0,2-2V4A2.006,2.006,0,0,0,17,2Zm-.5,4h-9A.5.5,0,0,1,7,5.5v-1A.5.5,0,0,1,7.5,4h9a.5.5,0,0,1,.5.5v1A.5.5,0,0,1,16.5,6ZM20,22H4a2.006,2.006,0,0,1-2-2V19H22v1A2.006,2.006,0,0,1,20,22ZM18.53,10.19A2.008,2.008,0,0,0,16.7,9H7.3a2.008,2.008,0,0,0-1.83,1.19L2,18H22ZM9.5,16h-1a.5.5,0,0,1,0-1h1a.5.5,0,0,1,0,1Zm0-2h-1a.5.5,0,0,1,0-1h1a.5.5,0,0,1,0,1Zm0-2h-1a.5.5,0,0,1,0-1h1a.5.5,0,0,1,0,1Zm3,4h-1a.5.5,0,0,1,0-1h1a.5.5,0,0,1,0,1Zm0-2h-1a.5.5,0,0,1,0-1h1a.5.5,0,0,1,0,1Zm0-2h-1a.5.5,0,0,1,0-1h1a.5.5,0,0,1,0,1Zm3,4h-1a.5.5,0,0,1,0-1h1a.5.5,0,0,1,0,1Zm0-2h-1a.5.5,0,0,1,0-1h1a.5.5,0,0,1,0,1Zm0-2h-1a.5.5,0,0,1,0-1h1a.5.5,0,0,1,0,1Z"/></svg>