<svg xmlns="http://www.w3.org/2000/svg" width="22.26" height="21.539" viewBox="0 0 22.26 21.539"><defs><style>.a{fill:#da5347;}</style></defs><g transform="translate(0 0)"><g transform="translate(0 0)"><g transform="translate(0 0)"><path class="a" d="M17.224,7.338A1.884,1.884,0,0,0,15.567,5.47V.645a.645.645,0,0,0-1.2-.324A7.723,7.723,0,0,1,9.594,3.884a10.14,10.14,0,0,1-2.976.394.373.373,0,0,0-.059,0H3.127a3.127,3.127,0,0,0-.3,6.24l1.035,4.257a1.25,1.25,0,0,0,1.218.957H5.8a1.254,1.254,0,0,0,1.218-1.55l-.888-3.65h.427a.372.372,0,0,0,.059,0,10.141,10.141,0,0,1,2.976.394,7.724,7.724,0,0,1,4.771,3.562.637.637,0,0,0,.553.321.662.662,0,0,0,.172-.023.638.638,0,0,0,.477-.622V9.343a1.884,1.884,0,0,0,1.657-1.868V7.338ZM3.443,7.872,5.677,9.786A4.813,4.813,0,0,0,6.4,7.407C6.4,6.094,6.017,9.189,3.443,7.872ZM14.82,5.83V13.8a8.616,8.616,0,0,0-5.047-3.6,11.263,11.263,0,0,0-2.8-.419V5.028a11.264,11.264,0,0,0,2.8-.419,8.616,8.616,0,0,0,5.047-3.6Zm1.657,1.645a1.136,1.136,0,0,1-.909,1.112V6.226a1.136,1.136,0,0,1,.909,1.112Z" transform="translate(0 7.279) rotate(-25)"/><path class="a" d="M.374,1.729a.372.372,0,0,0,.252-.1L1.7.65A.374.374,0,1,0,1.2.1L.122,1.079a.374.374,0,0,0,.252.65Z" transform="translate(16.851 3.28) rotate(-25)"/><path class="a" d="M.625.1a.374.374,0,1,0-.5.553L1.2,1.632a.374.374,0,1,0,.5-.553Z" transform="translate(19.424 8.799) rotate(-25)"/><path class="a" d="M1.2,0H.374a.374.374,0,1,0,0,.747H1.2A.374.374,0,0,0,1.2,0Z" transform="translate(18.886 6.233) rotate(-25)"/></g></g></g></svg>